<svg xmlns="http://www.w3.org/2000/svg" width="14" height="15" viewBox="0 0 16 17" fill="none">
  <path d="M6.48076 7.13736L8 1.82003L9.2019 6.02668C9.44735 6.88575 10.1326 7.54854 10.9994 7.76523L14.4144 8.61899L9.80769 10.5385L9.59762 10.626L9.52566 10.8419L8 15.4189L6.47434 10.8419L6.40238 10.626L6.19231 10.5385L1.58558 8.61899L6.12127 7.48507L6.40143 7.41503L6.48076 7.13736Z" stroke="#FFBF00"/>
  <path d="M6.48076 7.13736L8 1.82003L9.2019 6.02668C9.44735 6.88575 10.1326 7.54854 10.9994 7.76523L14.4144 8.61899L9.80769 10.5385L9.59762 10.626L9.52566 10.8419L8 15.4189L6.47434 10.8419L6.40238 10.626L6.19231 10.5385L1.58558 8.61899L6.12127 7.48507L6.40143 7.41503L6.48076 7.13736Z" stroke="#FFBF00"/>
  <path d="M12.3425 3.82445L12.5385 3.30776C12.7352 3.59316 12.9887 3.83376 13.2817 4.01505L12.9753 4.11116L12.7594 4.1789L12.6678 4.38583L12.5 4.76486L12.3322 4.38583L12.2406 4.1789L12.0576 4.12148L12.243 4.08657L12.3425 3.82445Z" stroke="#FFBF00"/>
  <path d="M12.3425 3.82445L12.5385 3.30776C12.7352 3.59316 12.9887 3.83376 13.2817 4.01505L12.9753 4.11116L12.7594 4.1789L12.6678 4.38583L12.5 4.76486L12.3322 4.38583L12.2406 4.1789L12.0576 4.12148L12.243 4.08657L12.3425 3.82445Z" stroke="#FFBF00"/>
  <path d="M3.34247 13.8244L3.53854 13.3078C3.73525 13.5932 3.98875 13.8338 4.28169 14.015L3.97533 14.1112L3.75941 14.1789L3.6678 14.3858L3.5 14.7649L3.3322 14.3858L3.24059 14.1789L3.05755 14.1215L3.24301 14.0866L3.34247 13.8244Z" stroke="#FFBF00"/>
  <path d="M3.34247 13.8244L3.53854 13.3078C3.73525 13.5932 3.98875 13.8338 4.28169 14.015L3.97533 14.1112L3.75941 14.1789L3.6678 14.3858L3.5 14.7649L3.3322 14.3858L3.24059 14.1789L3.05755 14.1215L3.24301 14.0866L3.34247 13.8244Z" stroke="#FFBF00"/>
</svg>